<?xml version="1.0" encoding="UTF-8"?><svg id="a" xmlns="http://www.w3.org/2000/svg" width="943.26" height="632.1586" viewBox="0 0 943.26 632.1586"><defs><style>.b{fill:#f7a81b;}.c{fill:#ec6524;}.d{fill:#8bd3ef;}.e{fill:#e4195b;}.f{fill:#9480b2;}.g{fill:#77b943;}</style></defs><g><path class="f" d="M315.1533,.0003c-3.0805,0-6.111,.2359-9.0647,.6904-28.2921,4.3613-49.9508,28.8144-49.9508,58.3251,0,32.5942,26.4213,59.0155,59.0155,59.0155,2.1983,0,4.3701,.1151,6.5123,.3364,31.4583,3.2665,56.0677,29.9356,56.0677,62.2408,0,34.5064-28.0737,62.5801-62.5801,62.5801-32.5914,.0147-59.0008,26.4477-58.9891,59.0391,.0119,32.5826,26.4243,58.9861,59.0008,58.992h.1239c61.2139-.0443,115.3843-30.6881,148.0318-77.4373,20.437-29.2688,32.4408-64.8493,32.4408-103.174C495.7615,81.0225,414.7418,0,315.1531,0V.0003Z"/><path class="e" d="M118.03,59.6986V573.1386c0,32.6-26.42,59.02-59.01,59.02S0,605.7386,0,573.1386V59.6986H118.03Z"/><path class="d" d="M321.6845,118.3512c-2.1642,.265-4.3284,.3534-6.5368,.3534H59.0147C26.4183,118.7047,.0056,92.292,.0056,59.6956S26.4183,.6866,59.0147,.6866h247.0785c-28.3121,4.3726-49.9545,28.7977-49.9545,58.3464,0,32.5964,26.4127,59.0093,59.009,59.0093,2.2084,0,4.3726,.0882,6.5368,.3089Z"/><path class="g" d="M344.52,514.1286v118.03H59.02c-32.6,0-59.02-26.42-59.02-59.02s26.42-59.01,59.02-59.01H344.52Z"/><path class="f" d="M315.1533,.6907h-9.0647c-28.2921,4.3613-49.9508,28.8144-49.9508,58.3251,0,32.5943,26.4213,59.0155,59.0155,59.0155,2.1983,0,4.3701,.1151,6.5123,.3364,29.5285-3.24,52.5032-28.2655,52.5032-58.6586,0-32.5972-26.4213-59.0185-59.0155-59.0185"/><polygon class="b" points="315.29 361.1686 315.29 361.2186 315.2 361.2186 315.29 361.1686"/><path class="c" d="M373.715,302.2246c0,32.5521-26.4569,59.0093-59.009,59.0093H59.0147C26.4183,361.2339,.0056,334.7768,.0056,302.2246,.0056,269.6283,26.4183,243.1714,59.0147,243.1714h255.6914c32.5521,0,59.009,26.4569,59.009,59.0532Z"/><path class="b" d="M539.01,437.6686c0,107.24-87.25,194.49-194.49,194.49-32.6,0-59.02-26.42-59.02-59.02s26.42-59.01,59.02-59.01c42.16,0,76.46-34.3,76.46-76.46s-34.3-76.46-76.46-76.46l-29.23,.01v-.05l-.09,.05h-.03c-32.58,0-58.99-26.41-59.0099-58.9901-.01-32.6,26.4-59.03,59-59.04h.02l29.31-.01c44.71,0,85.94,15.16,118.83,40.6,46.01,35.6,75.69,91.35,75.69,153.89Z"/><polygon class="b" points="315.29 361.1686 315.29 361.2186 315.2 361.2186 315.29 361.1686"/></g><g><g><rect class="e" x="675.8592" y="317.5715" width="243.402" height="65.9154" rx="32.9577" ry="32.9577" transform="translate(1148.0894 -447.0311) rotate(90)"/><path class="g" d="M830.52,598.7186c0,8.43-3.22,16.86-9.66,23.3-.52,.52-1.05,1.02-1.6,1.49h-43.4c-.55-.47-1.08-.97-1.6-1.49l-112.75-112.74c-6.44-6.44-9.65-14.8701-9.65-23.3,0-8.44,3.21-16.88,9.65-23.31,12.88-12.87,33.74-12.87,46.61,0l112.74,112.74c6.44,6.4301,9.66,14.8701,9.66,23.3101Z"/><path class="f" d="M943.26,485.9786c0,8.43-3.21,16.86-9.65,23.3l-112.75,112.74c-.52,.52-1.05,1.02-1.6,1.49h-43.4c-.55-.47-1.08-.97-1.6-1.49-6.44-6.44-9.66-14.87-9.66-23.3,0-8.44,3.22-16.88,9.66-23.3101l112.74-112.74c12.87-12.87,33.73-12.87,46.61,0,6.44,6.43,9.65,14.87,9.65,23.31Z"/><path class="b" d="M830.52,439.2686v159.44c0,9.11-3.69,17.35-9.65,23.31-.88,.88-1.81,1.71-2.79,2.48-.4,.32-.8,.62-1.21,.92-.41,.3-.83,.59-1.25,.86-.42,.28-.85,.54-1.28,.8s-.86,.5-1.3,.73h-.0099c-.4301,.24-.87,.46-1.32,.67-.43,.21-.87,.41-1.32,.6-.49,.21-.99,.4-1.5,.59-.43,.15-.86,.3-1.29,.44-.46,.15-.93,.29-1.4,.41-1.88,.51-3.8,.85-5.73,1.02-.1201,.01-.2401,.02-.3701,.03-.35,.03-.7,.05-1.06,.07h-.11c-.45,.02-.91,.03-1.37,.03s-.92-.01-1.37-.03h-.11c-.36-.02-.71-.04-1.06-.07-.13-.01-.25-.02-.37-.03-1.93-.17-3.85-.5099-5.73-1.02-.47-.12-.94-.26-1.4-.41-.43-.14-.86-.29-1.29-.44-.5099-.19-1.0099-.38-1.5-.59-.45-.19-.89-.39-1.3199-.6-.45-.21-.89-.43-1.32-.67h-.01c-.44-.23-.87-.47-1.3-.73-.4301-.26-.86-.52-1.28-.8-.42-.27-.84-.56-1.25-.86-.41-.3-.81-.6-1.21-.92-.4-.32-.79-.65-1.18-.99h.0034c-6.9001-6.034-11.2634-14.9034-11.2634-24.8v-159.44c0-9.1,3.69-17.34,9.65-23.3,5.97-5.96,14.21-9.65,23.31-9.65,18.2,0,32.96,14.75,32.96,32.95Z"/></g><g><rect class="e" x="563.1185" y="249.3611" width="243.402" height="65.9154" rx="32.9577" ry="32.9577" transform="translate(402.5007 967.1383) rotate(-90)"/><path class="g" d="M830.52,146.8786c0,8.43-3.22,16.86-9.66,23.3-12.87,12.87-33.73,12.87-46.6,0l-89.44-89.44-23.31-23.3c-6.44-6.44-9.65-14.87-9.65-23.3,0-8.44,3.21-16.88,9.65-23.31,.42-.42,.86-.83,1.3-1.23h44.01c.44,.4,.88,.81,1.3,1.23l112.74,112.74c6.44,6.43,9.66,14.87,9.66,23.31Z"/><path class="f" d="M717.77,34.1386c0,8.43-3.22,16.86-9.65,23.3l-112.74,112.74c-12.87,12.87-33.74,12.87-46.61,0-6.44-6.44-9.65-14.87-9.65-23.3,0-8.44,3.21-16.88,9.65-23.31L661.51,10.8286c.42-.42,.86-.83,1.3-1.23h44.01c.44,.4,.88,.81,1.3,1.23,6.43,6.43,9.65,14.87,9.65,23.31Z"/><path class="b" d="M717.78,34.1386V193.5786c0,9.1-3.69,17.34-9.65,23.3-5.97,5.96-14.21,9.65-23.31,9.65-18.2,0-32.96-14.75-32.96-32.95V34.1386c0-9.1,3.69-17.34,9.65-23.3,.43-.4301,.87-.85,1.32-1.2401,.11-.11,.23-.21,.35-.3199,.22-.2,.44-.39,.67-.57,.17-.13,.33-.27,.5-.4,.2401-.2,.5-.4,.75-.58,.17-.13,.35-.2599,.53-.39,.68-.5,1.38-.96,2.1-1.39,.19-.11,.39-.23,.58-.34,.72-.43,1.46-.82,2.22-1.18,.35-.17,.71-.34,1.08-.49,.37-.17,.74-.33,1.13-.47,.22-.09,.45-.1801,.68-.26,.02-.01,.04-.02,.07-.03,.37-.14,.75-.27,1.13-.39,.39-.13,.78-.25,1.18-.36,.56-.16,1.12-.3,1.68-.43,1.4-.32,2.82-.54,4.2401-.67,.59-.06,1.18-.1,1.77-.12,.44-.02,.89-.03,1.33-.03s.88,.01,1.33,.03c.59,.02,1.18,.06,1.77,.12,1.42,.13,2.83,.35,4.23,.67,.44,.1,.87,.21,1.3,.33,.13,.03,.26,.07,.39,.1,.4,.11,.79,.23,1.18,.36,.38,.12,.75,.25,1.13,.39,.02,.01,.05,.02,.07,.03,.23,.08,.46,.17,.68,.26,.38,.14,.76,.3,1.13,.47,.36,.15,.72,.32,1.08,.49,1.42,.69,2.81,1.48,4.14,2.38,.32,.22,.64,.44,.95,.67,.13,.09,.26,.19,.38,.28,.34,.26,.68,.52,1.01,.79,.07,.05,.13,.11,.2,.16,.3,.25,.59,.5,.88,.76,.05,.04,.09,.08,.14,.1299h.01c6.73,6.03,10.96,14.79,10.96,24.54Z"/></g></g></svg>