<?xml version="1.0" encoding="UTF-8"?><svg id="a" xmlns="http://www.w3.org/2000/svg" width="1080" height="1080" viewBox="0 0 1080 1080"><defs><style>.b{fill:#f7a81b;}.c{fill:#ec6524;}.d{fill:#8bd3ef;}.e{fill:#e4195b;}.f{fill:#9480b2;}.g{fill:#77b943;}</style></defs><path class="f" d="M617.987,.0005c-5.2629,0-10.4403,.403-15.4865,1.1795-48.3351,7.451-85.3375,49.2274-85.3375,99.6444,0,55.685,45.139,100.824,100.824,100.824,3.7557,0,7.466,.1967,11.1258,.5748,53.7444,5.5807,95.7879,51.1429,95.7879,106.3341,0,58.9518-47.962,106.9138-106.9138,106.9138-55.6801,.0251-100.7989,45.1841-100.7788,100.8643,.0203,55.6652,45.144,100.7738,100.7989,100.7839h.2116c104.5799-.0758,197.1263-52.4286,252.9023-132.2964,34.9151-50.0037,55.4229-110.7906,55.4229-176.2658C926.5438,138.4214,788.1272,0,617.9867,0l.0002,.0005Z"/><path class="e" d="M180.3955,1079.9977c-55.6852,0-100.8242-45.139-100.8242-100.8242V102.0039C79.5713,46.3189,124.7102,1.18,180.3955,1.18s100.824,45.139,100.824,100.824V979.1736c0,55.685-45.139,100.824-100.824,100.824"/><path class="d" d="M629.145,202.1951c-3.6974,.4527-7.3948,.6038-11.1678,.6038H180.3915c-55.6887,0-100.8129-45.1242-100.8129-100.8129S124.7029,1.1731,180.3915,1.1731h422.1168c-48.3694,7.4704-85.3439,49.1989-85.3439,99.6808,0,55.6887,45.1242,100.8134,100.8129,100.8134,3.7729,0,7.4704,.1506,11.1678,.5278Z"/><path class="g" d="M668.1581,878.3538v201.6462H180.4007c-55.6949,0-100.8317-45.1367-100.8317-100.8316s45.1367-100.8146,100.8317-100.8146h487.7574Z"/><path class="f" d="M617.987,1.18h-15.4865c-48.3351,7.451-85.3375,49.2274-85.3375,99.6444,0,55.6852,45.139,100.824,100.824,100.824,3.7557,0,7.466,.1967,11.1258,.5748,50.4474-5.5353,89.6981-48.2897,89.6981-100.2142,0-55.69-45.139-100.829-100.824-100.829"/><polygon class="b" points="618.2205 617.032 618.2205 617.1175 618.0668 617.1175 618.2205 617.032"/><path class="c" d="M718.0358,516.3302c0,55.6131-45.1998,100.8134-100.8129,100.8134H180.3915c-55.6887,0-100.8129-45.2002-100.8129-100.8134,0-55.6887,45.1242-100.8884,100.8129-100.8884h436.8313c55.6131,0,100.8129,45.1998,100.8129,100.8884Z"/><path class="b" d="M1000.431,747.7271c0,183.2122-149.0607,332.2729-332.2729,332.2729-55.6949,0-100.8317-45.1367-100.8317-100.8316s45.1367-100.8146,100.8317-100.8146c72.0274,0,130.6266-58.5992,130.6266-130.6268s-58.5992-130.6266-130.6266-130.6266l-49.9375,.0171v-.0855l-.1537,.0855h-.0513c-55.6606,0-100.7804-45.1197-100.8145-100.7805-.0171-55.6948,45.1025-100.8487,100.7975-100.8658h.0341l50.0741-.0171c76.384,0,146.8227,25.8999,203.013,69.3624,78.605,60.8201,129.3112,156.0652,129.3112,262.9105Z"/><polygon class="b" points="618.2205 617.032 618.2205 617.1175 618.0668 617.1175 618.2205 617.032"/></svg>